<svg xmlns="http://www.w3.org/2000/svg" width="20.451" height="20" viewBox="0 0 20.451 20"><defs><style>.a{fill:#9647db;}.b{fill:none;}</style></defs><path class="a" d="M13.271,23.75A1.951,1.951,0,0,0,15.088,21.7H11.453A1.951,1.951,0,0,0,13.271,23.75ZM18.724,17.6V12.468c0-3.149-1.481-5.785-4.09-6.482v-.7A1.457,1.457,0,0,0,13.271,3.75a1.457,1.457,0,0,0-1.363,1.538v.7c-2.6.7-4.09,3.323-4.09,6.482V17.6L6,19.647v1.026H20.541V19.647Zm-1.818,1.026H9.635V12.468c0-2.544,1.372-4.615,3.635-4.615s3.635,2.072,3.635,4.615Z" transform="translate(-3 -3.75)"/><path class="b" d="M8.737,5.371,7.271,3.9a10.692,10.692,0,0,0-4.226,8.051H5.1A8.662,8.662,0,0,1,8.737,5.371Zm12.708,6.585H23.5A10.758,10.758,0,0,0,19.271,3.9L17.814,5.371A8.713,8.713,0,0,1,21.445,11.955Zm-2.021.513c0-3.149-1.682-5.785-4.615-6.482v-.7a1.538,1.538,0,1,0-3.077,0v.7c-2.944.7-4.615,3.323-4.615,6.482V17.6L5.066,19.647v1.026h16.41V19.647L19.424,17.6ZM13.271,23.75a1.8,1.8,0,0,0,.41-.041,2.081,2.081,0,0,0,1.477-1.21,2.059,2.059,0,0,0,.154-.8h-4.1A2.066,2.066,0,0,0,13.271,23.75Z" transform="translate(-3.045 -3.75)"/></svg>