<svg xmlns="http://www.w3.org/2000/svg" width="24" height="24" viewBox="0 0 24 24"><defs><style>.a{fill:none;}.b{fill:#fff;}</style></defs><rect class="a" width="24" height="24"/><path class="b" d="M10,12A4,4,0,1,0,6,8,4,4,0,0,0,10,12Zm0-6A2,2,0,1,1,8,8,2.006,2.006,0,0,1,10,6Z"/><path class="b" d="M4,18c.22-.72,3.31-2,6-2a5.945,5.945,0,0,1,.35-1.99C7.62,13.91,2,15.27,2,18v2h9.54a5.875,5.875,0,0,1-1.19-2Z"/><path class="b" d="M19.43,18.02A3.864,3.864,0,0,0,20,16a4,4,0,1,0-4,4,3.959,3.959,0,0,0,2.02-.57L20.59,22,22,20.59C20.5,19.09,21.21,19.79,19.43,18.02ZM16,18a2,2,0,1,1,2-2A2.006,2.006,0,0,1,16,18Z"/></svg>