<svg xmlns="http://www.w3.org/2000/svg" width="31.667" height="37" viewBox="0 0 31.667 37"><defs><style>.a{fill:#bd8dbf;}.b{fill:#f4989d;}</style></defs><g transform="translate(0 0)"><path class="a" d="M9.487,79.1a.739.739,0,0,0,.156,1.013l5.65,4.17a.739.739,0,0,0,1.013-.156l2.221-3L11.708,76.1Z" transform="translate(-9.351 -47.419)"/><path class="a" d="M46.129,57.4a1.7,1.7,0,0,0-1.754-.429l-5.144,1.676v.39a3.2,3.2,0,0,1-2.494,3l-.312.078a35.049,35.049,0,0,1-5.689.779l-1.559.078a.858.858,0,1,1-.078-1.715l1.559-.078a31.772,31.772,0,0,0,5.417-.74l.312-.078A1.411,1.411,0,0,0,37.517,59a1.471,1.471,0,0,0-.39-1.052,1.637,1.637,0,0,0-1.013-.468l-8.222-.195a4.131,4.131,0,0,0-2.572.818L18.5,63.09l7.17,5.261,6.936.585a4.711,4.711,0,0,0,3.351-1.013l10.015-8.027a1.679,1.679,0,0,0,.623-1.208A1.613,1.613,0,0,0,46.129,57.4Z" transform="translate(-14.935 -35.695)"/><path class="b" d="M40.2,30.8v5.767a1.847,1.847,0,0,0,1.87,1.87H56.45a1.847,1.847,0,0,0,1.87-1.87V30.8a56.6,56.6,0,0,1-6.157.585V31.5a2.087,2.087,0,0,1-2.065,2.1H48.5a2.063,2.063,0,0,1-2.065-2.1v-.117A56.2,56.2,0,0,1,40.2,30.8Z" transform="translate(-28.179 -19.772)"/><path class="b" d="M37.129,11.852a48.344,48.344,0,0,0,7.131.779,2.054,2.054,0,0,1,2.065-2.065h1.6a2.079,2.079,0,0,1,2.065,2.065,48.359,48.359,0,0,0,7.092-.779.55.55,0,0,0,.429-.546V8.423a1.871,1.871,0,0,0-1.87-1.87H51.508V5.189A2.694,2.694,0,0,0,48.819,2.5H45.39A2.694,2.694,0,0,0,42.7,5.189V6.553H38.57a1.847,1.847,0,0,0-1.87,1.87v2.884A.55.55,0,0,0,37.129,11.852Zm7.716-6.664a.566.566,0,0,1,.585-.546h3.429a.557.557,0,0,1,.546.546V6.553H44.844Z" transform="translate(-26.043 -2.5)"/><path class="b" d="M62.082,29.806a.616.616,0,0,0,.623-.623V27.623A.616.616,0,0,0,62.082,27H60.523a.616.616,0,0,0-.623.623v1.559a.616.616,0,0,0,.623.623Z" transform="translate(-40.202 -17.453)"/></g></svg>