<svg xmlns="http://www.w3.org/2000/svg" xmlns:xlink="http://www.w3.org/1999/xlink" width="36.991" height="37" viewBox="0 0 36.991 37"><defs><style>.a{fill-rule:evenodd;fill:url(#a);}</style><linearGradient id="a" x1="0.634" y1="0.562" x2="1" y2="0.566" gradientUnits="objectBoundingBox"><stop offset="0" stop-color="#bd8dbf"/><stop offset="1" stop-color="#f4989d"/></linearGradient></defs><g transform="translate(-8 -7.992)"><g transform="translate(8 7.992)"><path class="a" d="M19.551,21.241l-.016,0a1.659,1.659,0,0,1-.572-.27,1.2,1.2,0,0,1-.353-.585,10.1,10.1,0,0,1-.324-1.189,8.53,8.53,0,0,1-.168-1.1,2.031,2.031,0,0,1,.057-.8.746.746,0,0,1,.417-.427,1.314,1.314,0,0,1,.279-.032c.062-.016-.032-.051-.034-.083l-.171-2.4A4.519,4.519,0,0,1,19.6,10.9a1.289,1.289,0,0,1,.954-.2.774.774,0,0,1,.073-.87,4.131,4.131,0,0,1,1.359-1.246,5.661,5.661,0,0,1,2.766-.582,6.879,6.879,0,0,1,2.993,1.132,5.07,5.07,0,0,1,1.731,1.909,6.986,6.986,0,0,1,.632,2.67,14.534,14.534,0,0,1-.126,3.1,1.026,1.026,0,0,1,.3.065.741.741,0,0,1,.471.462,2.663,2.663,0,0,1,.043.989,7.488,7.488,0,0,1-.176,1.1,6.99,6.99,0,0,1-.323,1.006,1.273,1.273,0,0,1-.353.54,1.669,1.669,0,0,1-.572.269c-.043.013-.088.025-.134.037l-.073,1.124a2.691,2.691,0,0,1-.722,1.7v1.946a1.174,1.174,0,0,1-.472.959l-2.89,2.217,1.046.622c.2.121.094.391,0,.609l-.421.972c-.1.232-.228.435-.128.668l.1.233.658,2.407.283,8.467,2.126-9.908c.084-.164.161-.317.23-.465A.578.578,0,0,1,30,32.8a9.179,9.179,0,0,0,9.919,4.475.578.578,0,0,1,.7.522,32.074,32.074,0,0,0,.37,3.479,2.265,2.265,0,0,1-1.906,2.795,114.717,114.717,0,0,1-29.092-.016,2.263,2.263,0,0,1-1.917-2.8c.333-1.34.644-8.792.9-9.659.4-1.4.652-1.9,1.078-2.222a7.149,7.149,0,0,1,2.381-.779,42.378,42.378,0,0,0,4.781-1.395,6.706,6.706,0,0,0,2.152-1.289.168.168,0,0,1,.19-.027.171.171,0,0,1,.1.166c-.1,1.613-.186,3.188-.147,4.294a5.944,5.944,0,0,0,.81,2.956l2.125,9.908.283-8.469.659-2.407.061-.143c.1-.232-.017-.439-.127-.666L22.8,30.468c-.1-.213-.2-.487,0-.608h0l1.118-.666L21.085,27.02a1.173,1.173,0,0,1-.473-.959V24.383l-.212-.222a2.706,2.706,0,0,1-.772-1.755l-.076-1.165h0ZM38,21.318a7,7,0,1,1-7,7A7,7,0,0,1,38,21.318Zm-3.958,6h7.916a.485.485,0,0,1,.5.467v1.065a.485.485,0,0,1-.5.467H34.038a.484.484,0,0,1-.5-.467V27.781A.485.485,0,0,1,34.038,27.314Z" transform="translate(-8 -7.992)"/></g></g></svg>