<svg xmlns="http://www.w3.org/2000/svg" width="24" height="24" viewBox="0 0 24 24"><defs><style>.a{fill:none;}.b{fill:#fff;}</style></defs><rect class="a" width="24" height="24"/><path class="b" d="M20,17.17l-3.37-3.38a13.085,13.085,0,0,1,1.77.76A3.019,3.019,0,0,1,20,17.17Zm1.19,4.02L19.78,22.6,17.17,20H4V17.22a2.971,2.971,0,0,1,1.61-2.66,14.248,14.248,0,0,1,4.67-1.45L1.39,4.22,2.8,2.81ZM15.17,18l-3-3H12a12.108,12.108,0,0,0-5.48,1.34.971.971,0,0,0-.52.88V18ZM12,6a2,2,0,0,1,.7,3.87l1.48,1.48A4,4,0,1,0,8.65,5.82L10.13,7.3A1.989,1.989,0,0,1,12,6Z"/></svg>