<svg xmlns="http://www.w3.org/2000/svg" width="36.373" height="37" viewBox="0 0 36.373 37"><defs><style>.a{fill:#f4989d;}.b{fill:#bd8dbf;}</style></defs><g transform="translate(0 0)"><path class="a" d="M45.518,14.246a6.252,6.252,0,0,1,1.275-.731l-3.862-2.124c.007.127.019.253.019.382a6.951,6.951,0,0,1-.083,1.015Z" transform="translate(-17.866 -6.129)"/><path class="a" d="M18.8,12.788a6.936,6.936,0,0,1-.083-1.015c0-.129.013-.254.019-.381l-3.861,2.123a6.262,6.262,0,0,1,1.274.73Z" transform="translate(-7.428 -6.129)"/><path class="b" d="M35.051,28.78A1.254,1.254,0,0,0,33.8,30.034V28.78a1.254,1.254,0,1,0-2.508,0,1.254,1.254,0,1,0-2.508,0V21.254a1.254,1.254,0,0,0-2.508,0V33.178a2.516,2.516,0,0,1-.265,1.122l-.362.724h-.627L24.311,31.5a3.415,3.415,0,0,0-3.349-2.745h0a.962.962,0,0,0-.963.962h0a.966.966,0,0,0,.162.534l.645.968a3.417,3.417,0,0,1,.547,1.471l.434,3.47a3.762,3.762,0,0,0,.467,1.4l2.135,4.389v1.881H23.136v2.508H35.678V43.831H34.424V41.949l1.129-1.505a3.763,3.763,0,0,0,.753-2.258V30.034A1.254,1.254,0,0,0,35.051,28.78Z" transform="translate(-9.339 -9.339)"/><path class="a" d="M6.208,29.5a4.98,4.98,0,0,0,6.01,0,3.761,3.761,0,0,0-6.01,0Z" transform="translate(-4.196 -12.322)"/><ellipse class="a" cx="1.966" cy="1.573" rx="1.966" ry="1.573" transform="translate(3.146 11.024)"/><path class="a" d="M8.017,16a5.011,5.011,0,0,0-3.908,8.155,5.015,5.015,0,0,1,1.838-1.429,3.136,3.136,0,1,1,4.14,0,5.021,5.021,0,0,1,1.838,1.429A5.011,5.011,0,0,0,8.017,16Z" transform="translate(-3 -7.847)"/><ellipse class="a" cx="1.966" cy="1.573" rx="1.966" ry="1.573" transform="translate(29.104 11.024)"/><path class="a" d="M54.218,29.5a3.761,3.761,0,0,0-6.01,0,4.98,4.98,0,0,0,6.01,0Z" transform="translate(-19.857 -12.322)"/><path class="a" d="M46.881,20.39a3.136,3.136,0,1,1,5.206,2.337,5.021,5.021,0,0,1,1.838,1.429,5.017,5.017,0,1,0-7.816,0,5.015,5.015,0,0,1,1.838-1.429A3.115,3.115,0,0,1,46.881,20.39Z" transform="translate(-18.661 -7.847)"/><path class="a" d="M26.566,9.72a3.136,3.136,0,1,1,4.157,0,5,5,0,0,1,2.411,2.332,5.644,5.644,0,1,0-8.979,0A5,5,0,0,1,26.566,9.72Z" transform="translate(-10.458 -3)"/><path class="a" d="M26.362,17.512a5.649,5.649,0,0,0,1.292.78,2.491,2.491,0,0,1,4.488,0,5.685,5.685,0,0,0,1.292-.78,3.745,3.745,0,0,0-7.072,0Z" transform="translate(-11.711 -7.475)"/><circle class="a" cx="1.966" cy="1.966" r="1.966" transform="translate(16.519 2.372)"/></g></svg>