<svg xmlns="http://www.w3.org/2000/svg" width="117.735" height="43.636" viewBox="0 0 117.735 43.636">
  <g id="Group_62" data-name="Group 62" transform="translate(-209.2 -219.189)">
    <path id="Path_1759" data-name="Path 1759" d="M227.613,252.716c.37-1.075.7-2.015,1.019-2.96q4.5-13.377,9-26.754a6.108,6.108,0,0,1,1.524-2.86,4.015,4.015,0,0,1,6.456,2,5.736,5.736,0,0,1-.472,3.5c-1.556,4.3-3.153,8.586-4.738,12.877q-3.446,9.332-6.9,18.661a8.638,8.638,0,0,1-2.388,3.857,5.73,5.73,0,0,1-4.348,1.232,5.53,5.53,0,0,1-4.847-3.723c-.974-2.338-1.843-4.72-2.718-7.1q-4.736-12.875-9.434-25.763a5.958,5.958,0,0,1-.482-3.327,4.094,4.094,0,0,1,4.434-3.129,3.5,3.5,0,0,1,3.22,2.4q1.354,3.548,2.58,7.146,3.952,11.606,7.857,23.229C227.439,252.189,227.5,252.378,227.613,252.716Z" fill="#fff"/>
    <path id="Path_1760" data-name="Path 1760" d="M951.013,247.6c-1.34,1.256-2.667,2.481-3.965,3.736a1.1,1.1,0,0,0-.245.715c-.02,1.7.006,3.41-.017,5.115a6.977,6.977,0,0,1-.542,3.082,3.749,3.749,0,0,1-3.614,2.15,3.461,3.461,0,0,1-3.388-2.986,7.68,7.68,0,0,1-.142-1.478q-.012-16.966,0-33.932a5.259,5.259,0,0,1,1.248-3.664,3.756,3.756,0,0,1,5.857.938,7.636,7.636,0,0,1,.576,3.27c.018,5.842.008,11.685.008,17.527v.849c.491-.479.9-.851,1.276-1.249,2.734-2.876,5.44-5.781,8.208-8.624a5.9,5.9,0,0,1,3.06-2.122,3.294,3.294,0,0,1,4.092,3.3,3.675,3.675,0,0,1-1.124,2.294c-1.225,1.3-2.524,2.522-3.809,3.76-.747.72-1.526,1.407-2.329,2.144.792,1.247,1.576,2.479,2.356,3.713,2.221,3.51,4.424,7.032,6.666,10.529a3.8,3.8,0,0,1-1.462,5.408c-1.772.674-3.406.533-4.773-1.636q-2.563-4.065-5.089-8.152C952.906,250.748,951.975,249.188,951.013,247.6Z" transform="translate(-638.835 -0.125)" fill="#fff"/>
    <path id="Subtraction_1" data-name="Subtraction 1" d="M177.514-6432.524a16.617,16.617,0,0,1-5.437-.906,13.714,13.714,0,0,1-9.395-10.7,18.564,18.564,0,0,1,1-11.544,13.268,13.268,0,0,1,8.272-7.524,17.289,17.289,0,0,1,5.543-.9,20.25,20.25,0,0,1,3.089.245,15.544,15.544,0,0,1,5.209,1.736,13.755,13.755,0,0,1,4.143,3.574,14.83,14.83,0,0,1,3.024,7.927c.047.523.086,1.056.123,1.571l0,.037q.025.341.051.682a16.836,16.836,0,0,1-2.813,9.666,13.537,13.537,0,0,1-8.113,5.537A19.437,19.437,0,0,1,177.514-6432.524Zm.094-25.837h-.046a6.73,6.73,0,0,0-6.314,4,13.388,13.388,0,0,0-1.248,6.255v.113c0,.106,0,.215,0,.325a12.8,12.8,0,0,0,.775,4.239c1.247,3.419,3.5,5.1,6.9,5.124h.075c.209,0,.42-.008.628-.022a6.957,6.957,0,0,0,2.629-.7l.024-.012a6.931,6.931,0,0,0,3.189-3.547,14.115,14.115,0,0,0,1.225-5.712,15.087,15.087,0,0,0-1.035-5.392,6.762,6.762,0,0,0-6.642-4.669h-.156Z" transform="translate(84.582 6694.85)" fill="#fff" stroke="rgba(0,0,0,0)" stroke-miterlimit="10" stroke-width="1"/>
    <path id="Path_1762" data-name="Path 1762" d="M814.973,240.958c0,5.49.011,10.979-.013,16.469a8.375,8.375,0,0,1-.291,2.446,3.507,3.507,0,0,1-3.733,2.565,3.552,3.552,0,0,1-3.467-3.063,12.862,12.862,0,0,1-.226-2.217q-.021-16.282,0-32.563a6.6,6.6,0,0,1,.807-3.7,3.777,3.777,0,0,1,4-1.438,3.6,3.6,0,0,1,2.75,2.874,12.858,12.858,0,0,1,.161,2.1Q814.985,232.692,814.973,240.958Z" transform="translate(-523.424 -0.152)" fill="#fff"/>
  </g>
</svg>
